<?xml version="1.0" encoding="UTF-8" standalone="no"?>
<svg
   xmlns:dc="http://purl.org/dc/elements/1.1/"
   xmlns:cc="http://creativecommons.org/ns#"
   xmlns:rdf="http://www.w3.org/1999/02/22-rdf-syntax-ns#"
   xmlns:svg="http://www.w3.org/2000/svg"
   xmlns="http://www.w3.org/2000/svg"
   viewBox="0 0 1200 675"
   height="675"
   width="1200"
   xml:space="preserve"
   version="1.1"
   id="svg2"><metadata
     id="metadata8"><rdf:RDF><cc:Work
         rdf:about=""><dc:format>image/svg+xml</dc:format><dc:type
           rdf:resource="http://purl.org/dc/dcmitype/StillImage" /></cc:Work></rdf:RDF></metadata><defs
     id="defs6"><clipPath
       id="clipPath16"
       clipPathUnits="userSpaceOnUse"><path
         style="clip-rule:evenodd"
         id="path18"
         d="m 0,1.2207e-4 960,0 0,539.99999793 -960,0 L 0,1.2207e-4 Z" /></clipPath><clipPath
       id="clipPath30"
       clipPathUnits="userSpaceOnUse"><path
         style="clip-rule:evenodd"
         id="path32"
         d="M 1.4305e-5,0 960.00001,0 l 0,540 -959.999995695,0 0,-540 z" /></clipPath><clipPath
       id="clipPath42"
       clipPathUnits="userSpaceOnUse"><path
         style="clip-rule:evenodd"
         id="path44"
         d="M 1.4305e-5,0 960.00001,0 l 0,540 -959.999995695,0 0,-540 z" /></clipPath><clipPath
       id="clipPath54"
       clipPathUnits="userSpaceOnUse"><path
         style="clip-rule:evenodd"
         id="path56"
         d="M 1.4305e-5,0 960.00001,0 l 0,540 -959.999995695,0 0,-540 z" /></clipPath><clipPath
       id="clipPath70"
       clipPathUnits="userSpaceOnUse"><path
         style="clip-rule:evenodd"
         id="path72"
         d="M 1.4305e-5,0 960.00001,0 l 0,540 -959.999995695,0 0,-540 z" /></clipPath><clipPath
       id="clipPath82"
       clipPathUnits="userSpaceOnUse"><path
         style="clip-rule:evenodd"
         id="path84"
         d="M 1.4305e-5,0 960.00001,0 l 0,540 -959.999995695,0 0,-540 z" /></clipPath><clipPath
       id="clipPath98"
       clipPathUnits="userSpaceOnUse"><path
         style="clip-rule:evenodd"
         id="path100"
         d="M 1.4305e-5,0 960.00001,0 l 0,540 -959.999995695,0 0,-540 z" /></clipPath><clipPath
       id="clipPath114"
       clipPathUnits="userSpaceOnUse"><path
         style="clip-rule:evenodd"
         id="path116"
         d="M 1.4305e-5,0 960.00001,0 l 0,540 -959.999995695,0 0,-540 z" /></clipPath><clipPath
       id="clipPath136"
       clipPathUnits="userSpaceOnUse"><path
         style="clip-rule:evenodd"
         id="path138"
         d="M -6.1035e-5,540 960,540 960,1.2207e-4 -6.1035e-5,6.1035e-5" /></clipPath><clipPath
       id="clipPath156"
       clipPathUnits="userSpaceOnUse"><path
         style="clip-rule:evenodd"
         id="path158"
         d="M 3.0518e-5,540 960,540 960,1.8311e-4 l -959.999938965,0" /></clipPath><clipPath
       id="clipPath166"
       clipPathUnits="userSpaceOnUse"><path
         style="clip-rule:evenodd"
         id="path168"
         d="M 1.4305e-5,0 960.00001,0 l 0,540 -959.999995695,0 0,-540 z" /></clipPath><clipPath
       id="clipPath178"
       clipPathUnits="userSpaceOnUse"><path
         style="clip-rule:evenodd"
         id="path180"
         d="M 1.4305e-5,0 960.00001,0 l 0,540 -959.999995695,0 0,-540 z" /></clipPath><clipPath
       id="clipPath190"
       clipPathUnits="userSpaceOnUse"><path
         style="clip-rule:evenodd"
         id="path192"
         d="M 1.4305e-5,0 960.00001,0 l 0,540 -959.999995695,0 0,-540 z" /></clipPath><clipPath
       id="clipPath202"
       clipPathUnits="userSpaceOnUse"><path
         style="clip-rule:evenodd"
         id="path204"
         d="M 1.4305e-5,0 960.00001,0 l 0,540 -959.999995695,0 0,-540 z" /></clipPath><clipPath
       id="clipPath214"
       clipPathUnits="userSpaceOnUse"><path
         style="clip-rule:evenodd"
         id="path216"
         d="M 1.4305e-5,0 960.00001,0 l 0,540 -959.999995695,0 0,-540 z" /></clipPath><clipPath
       id="clipPath226"
       clipPathUnits="userSpaceOnUse"><path
         style="clip-rule:evenodd"
         id="path228"
         d="M 1.4305e-5,0 960.00001,0 l 0,540 -959.999995695,0 0,-540 z" /></clipPath><clipPath
       id="clipPath238"
       clipPathUnits="userSpaceOnUse"><path
         style="clip-rule:evenodd"
         id="path240"
         d="M 1.4305e-5,0 960.00001,0 l 0,540 -959.999995695,0 0,-540 z" /></clipPath></defs><g
     transform="matrix(1.25,0,0,-1.25,0,675)"
     id="g10"><g
       id="g12"><g
         clip-path="url(#clipPath16)"
         id="g14"><path
           id="path20"
           style="fill:#ffffff;fill-opacity:1;fill-rule:evenodd;stroke:none"
           d="m 0,6.1035e-5 960,0 0,539.999998965 -960,0 L 0,6.1035e-5 Z" /></g></g><path
       id="path22"
       style="fill:#ffffff;fill-opacity:1;fill-rule:evenodd;stroke:none"
       d="m 290.52,213 297.24,0 0,109.08 -297.24,0 0,-109.08 z" /><path
       id="path24"
       style="fill:none;stroke:#000000;stroke-width:0.95999998;stroke-linecap:butt;stroke-linejoin:miter;stroke-miterlimit:10;stroke-dasharray:none;stroke-opacity:1"
       d="m 290.52,213 297.24,0 0,109.08 -297.24,0 0,-109.08 z" /><g
       id="g26"><g
         clip-path="url(#clipPath30)"
         id="g28"><text
           id="text34"
           style="font-variant:normal;font-weight:normal;font-size:18px;font-family:YuGothic;-inkscape-font-specification:YuGothic-Regular;writing-mode:lr-tb;fill:#000000;fill-opacity:1;fill-rule:nonzero;stroke:none"
           transform="matrix(1,0,0,-1,394.85,229.32)"><tspan
             id="tspan36"
             y="0"
             x="0 13.464 23.562 33.966">Node</tspan></text>
</g></g><g
       id="g38"><g
         clip-path="url(#clipPath42)"
         id="g40"><text
           id="text46"
           style="font-variant:normal;font-weight:normal;font-size:18px;font-family:YuGothic;-inkscape-font-specification:YuGothic-Regular;writing-mode:lr-tb;fill:#000000;fill-opacity:1;fill-rule:nonzero;stroke:none"
           transform="matrix(1,0,0,-1,438.89,229.32)"><tspan
             id="tspan48"
             y="0"
             x="0">-</tspan></text>
</g></g><g
       id="g50"><g
         clip-path="url(#clipPath54)"
         id="g52"><text
           id="text58"
           style="font-variant:normal;font-weight:normal;font-size:18px;font-family:YuGothic;-inkscape-font-specification:YuGothic-Regular;writing-mode:lr-tb;fill:#000000;fill-opacity:1;fill-rule:nonzero;stroke:none"
           transform="matrix(1,0,0,-1,446.69,229.32)"><tspan
             id="tspan60"
             y="0"
             x="0 12.042 23.184">RED</tspan></text>
</g></g><path
       id="path62"
       style="fill:#ffffff;fill-opacity:1;fill-rule:evenodd;stroke:none"
       d="m 290.76,125.64 297,0 0,75 -297,0 0,-75 z" /><path
       id="path64"
       style="fill:none;stroke:#000000;stroke-width:0.95999998;stroke-linecap:butt;stroke-linejoin:miter;stroke-miterlimit:10;stroke-dasharray:none;stroke-opacity:1"
       d="m 290.76,125.64 297,0 0,75 -297,0 0,-75 z" /><g
       id="g66"><g
         clip-path="url(#clipPath70)"
         id="g68"><text
           id="text74"
           style="font-variant:normal;font-weight:normal;font-size:18px;font-family:YuGothic;-inkscape-font-specification:YuGothic-Regular;writing-mode:lr-tb;fill:#000000;fill-opacity:1;fill-rule:nonzero;stroke:none"
           transform="matrix(1,0,0,-1,378.77,157.3)"><tspan
             id="tspan76"
             y="0"
             x="0 12.276 16.92 27.018 37.476002">Cloud</tspan></text>
</g></g><g
       id="g78"><g
         clip-path="url(#clipPath82)"
         id="g80"><text
           id="text86"
           style="font-variant:normal;font-weight:normal;font-size:18px;font-family:YuGothic;-inkscape-font-specification:YuGothic-Regular;writing-mode:lr-tb;fill:#000000;fill-opacity:1;fill-rule:nonzero;stroke:none"
           transform="matrix(1,0,0,-1,431.93,157.3)"><tspan
             id="tspan88"
             y="0"
             x="0 10.944 21.042 31.445999 41.886002 52.290001 58.914001">Foundry</tspan></text>
</g></g><path
       id="path90"
       style="fill:#ffffff;fill-opacity:1;fill-rule:evenodd;stroke:none"
       d="m 446.28,255.96 134.04,0 0,56.64 -134.04,0 0,-56.64 z" /><path
       id="path92"
       style="fill:none;stroke:#000000;stroke-width:0.95999998;stroke-linecap:butt;stroke-linejoin:miter;stroke-miterlimit:10;stroke-dasharray:none;stroke-opacity:1"
       d="m 446.28,255.96 134.04,0 0,56.64 -134.04,0 0,-56.64 z" /><g
       id="g94"><g
         clip-path="url(#clipPath98)"
         id="g96"><text
           id="text102"
           style="font-variant:normal;font-weight:normal;font-size:18px;font-family:YuGothic;-inkscape-font-specification:YuGothic-Regular;writing-mode:lr-tb;fill:#000000;fill-opacity:1;fill-rule:nonzero;stroke:none"
           transform="matrix(1,0,0,-1,478.61,278.45)"><tspan
             id="tspan104"
             y="0"
             x="0 12.042 22.445999 32.886002 39.222 43.938 59.436001">Runtime</tspan></text>
</g></g><path
       id="path106"
       style="fill:#ffffff;fill-opacity:1;fill-rule:evenodd;stroke:none"
       d="m 301.2,255.96 134.04,0 0,56.64 -134.04,0 0,-56.64 z" /><path
       id="path108"
       style="fill:none;stroke:#000000;stroke-width:0.95999998;stroke-linecap:butt;stroke-linejoin:miter;stroke-miterlimit:10;stroke-dasharray:none;stroke-opacity:1"
       d="m 301.2,255.96 134.04,0 0,56.64 -134.04,0 0,-56.64 z" /><g
       id="g110"><g
         clip-path="url(#clipPath114)"
         id="g112"><text
           id="text118"
           style="font-variant:normal;font-weight:normal;font-size:18px;font-family:YuGothic;-inkscape-font-specification:YuGothic-Regular;writing-mode:lr-tb;fill:#000000;fill-opacity:1;fill-rule:nonzero;stroke:none"
           transform="matrix(1,0,0,-1,343.58,278.45)"><tspan
             id="tspan120"
             y="0"
             x="0 11.142 21.582001 26.298 32.633999 42.731998">Editor</tspan></text>
</g></g><path
       id="path122"
       style="fill:#ffffff;fill-opacity:1;fill-rule:evenodd;stroke:none"
       d="m 482.64,396.6 c 0,16.63 13.51,30.12 30.18,30.12 16.67,0 30.18,-13.49 30.18,-30.12 0,-16.63 -13.51,-30.12 -30.18,-30.12 -16.67,0 -30.18,13.49 -30.18,30.12 z" /><path
       id="path124"
       style="fill:#cdcdcd;fill-opacity:1;fill-rule:evenodd;stroke:none"
       d="m 500.01,405.61 c 0,1.73 1.4,3.14 3.14,3.14 1.74,0 3.14,-1.41 3.14,-3.14 0,-1.73 -1.4,-3.14 -3.14,-3.14 -1.74,0 -3.14,1.41 -3.14,3.14 z m 19.33,0 c 0,1.73 1.41,3.14 3.15,3.14 1.73,0 3.14,-1.41 3.14,-3.14 0,-1.73 -1.41,-3.14 -3.14,-3.14 -1.74,0 -3.15,1.41 -3.15,3.14 z" /><path
       id="path126"
       style="fill:none;stroke:#000000;stroke-width:0.95999998;stroke-linecap:butt;stroke-linejoin:miter;stroke-miterlimit:10;stroke-dasharray:none;stroke-opacity:1"
       d="m 500.01,405.61 c 0,1.73 1.4,3.14 3.14,3.14 1.74,0 3.14,-1.41 3.14,-3.14 0,-1.73 -1.4,-3.14 -3.14,-3.14 -1.74,0 -3.14,1.41 -3.14,3.14 z m 19.33,0 c 0,1.73 1.41,3.14 3.15,3.14 1.73,0 3.14,-1.41 3.14,-3.14 0,-1.73 -1.41,-3.14 -3.14,-3.14 -1.74,0 -3.15,1.41 -3.15,3.14 z" /><path
       id="path128"
       style="fill:none;stroke:#000000;stroke-width:0.95999998;stroke-linecap:butt;stroke-linejoin:miter;stroke-miterlimit:10;stroke-dasharray:none;stroke-opacity:1"
       d="m 496.46,383.46 c 10.91,-7.47 21.8,-7.47 32.68,0" /><path
       id="path130"
       style="fill:none;stroke:#000000;stroke-width:0.95999998;stroke-linecap:butt;stroke-linejoin:miter;stroke-miterlimit:10;stroke-dasharray:none;stroke-opacity:1"
       d="m 482.64,396.6 c 0,16.63 13.51,30.12 30.18,30.12 16.67,0 30.18,-13.49 30.18,-30.12 0,-16.63 -13.51,-30.12 -30.18,-30.12 -16.67,0 -30.18,13.49 -30.18,30.12 z" /><g
       id="g132"><g
         clip-path="url(#clipPath136)"
         id="g134"><path
           id="path140"
           style="fill:#000000;fill-opacity:1;fill-rule:nonzero;stroke:none"
           d="m 512.26,366.48 0.01,-5.03 0.01,-2.46 0,-2.41 0.01,-2.33 0.02,-2.23 0.01,-2.1 0.02,-1.97 0,0 0.02,-1.81 0.01,-0.85 0.01,-0.79 0,0 0.01,-0.75 0.01,-0.7 0,0.01 0.01,-0.64 0.02,-0.58 0,0 0,-0.53 0.02,-0.46 0,0.01 0.01,-0.41 0.01,-0.33 0,0.01 0.01,-0.28 0.01,-0.2 0,0.01 0.02,-0.2 0.04,-0.11 0.02,-0.04 -0.04,0.15 0.01,-0.12 0.01,-0.19 0,0.02 0.01,-0.26 0.02,-0.34 0,0.02 0,-0.4 0.01,-0.46 0.02,-0.53 0,0.01 0,-0.58 0.02,-0.64 0,0 0.01,-0.69 0,-0.75 0.02,-0.79 0,0 0.01,-0.84 0.01,-1.81 0.02,-1.97 0,0 0.02,-2.11 0.01,-2.22 0,0 0.01,-2.33 0.01,-2.4 0,-2.49 1,0 0,2.49 -0.01,2.41 -0.01,2.32 -0.01,2.23 -0.02,2.11 -0.02,1.97 0,-0.01 -0.02,1.82 0,0.84 -0.02,0.8 0,0 0,0.74 -0.01,0.7 -0.02,0.64 0,-0.01 -0.01,0.59 -0.01,0.52 0,0 -0.01,0.46 -0.01,0.4 -0.01,0.34 0,-0.01 -0.01,0.27 -0.01,0.2 0,0 -0.02,0.2 -0.04,0.11 -0.02,0.04 0.04,-0.16 -0.01,0.13 -0.01,0.19 0,-0.03 -0.01,0.27 -0.02,0.33 0,-0.01 0,0.4 -0.02,0.46 0,-0.01 -0.01,0.53 -0.01,0.58 0,-0.01 -0.01,0.64 -0.01,0.7 0,0 -0.01,0.74 -0.02,0.8 0,-0.01 0,0.84 -0.02,1.82 -0.02,1.97 0,-0.01 -0.02,2.11 -0.01,2.23 0,0 -0.01,2.32 0,2.41 -0.01,2.47 -0.01,5.02 -1,0 z m -2.01,-47.89 3.01,-6 2.99,6.01 -6,-0.01 z" /></g></g><path
       id="path142"
       style="fill:#ffffff;fill-opacity:1;fill-rule:evenodd;stroke:none"
       d="m 338.28,396.48 c 0,16.63 13.49,30.12 30.12,30.12 16.63,0 30.12,-13.49 30.12,-30.12 0,-16.63 -13.49,-30.12 -30.12,-30.12 -16.63,0 -30.12,13.49 -30.12,30.12 z" /><path
       id="path144"
       style="fill:#cdcdcd;fill-opacity:1;fill-rule:evenodd;stroke:none"
       d="m 355.61,405.49 c 0,1.73 1.41,3.14 3.14,3.14 1.73,0 3.14,-1.41 3.14,-3.14 0,-1.73 -1.41,-3.14 -3.14,-3.14 -1.73,0 -3.14,1.41 -3.14,3.14 z m 19.3,0 c 0,1.73 1.41,3.14 3.14,3.14 1.73,0 3.14,-1.41 3.14,-3.14 0,-1.73 -1.41,-3.14 -3.14,-3.14 -1.73,0 -3.14,1.41 -3.14,3.14 z" /><path
       id="path146"
       style="fill:none;stroke:#000000;stroke-width:0.95999998;stroke-linecap:butt;stroke-linejoin:miter;stroke-miterlimit:10;stroke-dasharray:none;stroke-opacity:1"
       d="m 355.61,405.49 c 0,1.73 1.41,3.14 3.14,3.14 1.73,0 3.14,-1.41 3.14,-3.14 0,-1.73 -1.41,-3.14 -3.14,-3.14 -1.73,0 -3.14,1.41 -3.14,3.14 z m 19.3,0 c 0,1.73 1.41,3.14 3.14,3.14 1.73,0 3.14,-1.41 3.14,-3.14 0,-1.73 -1.41,-3.14 -3.14,-3.14 -1.73,0 -3.14,1.41 -3.14,3.14 z" /><path
       id="path148"
       style="fill:none;stroke:#000000;stroke-width:0.95999998;stroke-linecap:butt;stroke-linejoin:miter;stroke-miterlimit:10;stroke-dasharray:none;stroke-opacity:1"
       d="m 352.07,383.34 c 10.89,-7.47 21.76,-7.47 32.62,0" /><path
       id="path150"
       style="fill:none;stroke:#000000;stroke-width:0.95999998;stroke-linecap:butt;stroke-linejoin:miter;stroke-miterlimit:10;stroke-dasharray:none;stroke-opacity:1"
       d="m 338.28,396.48 c 0,16.63 13.49,30.12 30.12,30.12 16.63,0 30.12,-13.49 30.12,-30.12 0,-16.63 -13.49,-30.12 -30.12,-30.12 -16.63,0 -30.12,13.49 -30.12,30.12 z" /><g
       id="g152"><g
         clip-path="url(#clipPath156)"
         id="g154"><path
           id="path160"
           style="fill:#000000;fill-opacity:1;fill-rule:nonzero;stroke:none"
           d="m 368.88,366.36 0,-5.02 -0.01,-2.46 0,-2.4 -0.01,-2.32 0,-2.22 0,0 0,-2.11 -0.01,-1.97 -0.01,-1.81 -0.01,-0.84 0,0.01 0,-0.8 0,-0.75 -0.01,-0.69 0,0.01 0,-0.64 -0.01,-0.59 0,0.01 0,-0.52 -0.01,-0.47 0,-0.4 0,0.01 0,-0.33 -0.01,-0.27 -0.01,-0.19 0,0.02 0,-0.17 -0.02,-0.09 0,-0.04 0.01,0.1 0,-0.13 -0.01,-0.2 0,0.01 -0.01,-0.26 0,0.01 0,-0.33 -0.01,-0.4 0,-0.46 0,0.01 0,-0.53 -0.01,-0.58 -0.01,-0.64 0,0.01 0,-0.7 -0.01,-0.74 0,0 0,-0.79 0,-0.84 0,0 -0.01,-1.81 -0.01,-1.97 -0.01,-2.1 0,-2.22 -0.01,-2.32 0,0 0,-2.4 -0.01,-2.48 -1,0 0.01,2.48 0,2.4 0.01,2.32 0,2.23 0.01,2.1 0.01,1.96 0.01,1.82 0,0.83 0,0 0,0.8 0.01,0.74 0,0 0,0.69 0.01,0.64 0.01,0.58 0,0 0,0.52 0,0.47 0.01,0.4 0,-0.01 0,0.33 0.01,0.27 0.01,0.19 0,-0.02 0,0.17 0.01,0.09 0.01,0.03 -0.01,-0.09 0,0.13 0.01,0.19 0,0 0.01,0.26 0,-0.01 0,0.32 0,0.4 0.01,0.47 0,-0.01 0,0.52 0.01,0.59 0,-0.01 0,0.64 0.01,0.7 0,0.74 0,-0.01 0,0.8 0.01,0.84 0,0 0.01,1.81 0.01,1.96 0,0 0,2.11 0,2.22 0.01,2.32 0,0 0,2.4 0.01,2.46 0,5.02 1,0 z m 2.28,-47.8 -3,-6 -3,6 6,0 z" /></g></g><g
       id="g162"><g
         clip-path="url(#clipPath166)"
         id="g164"><text
           id="text170"
           style="font-variant:normal;font-weight:normal;font-size:18px;font-family:YuGothic;-inkscape-font-specification:YuGothic-Regular;writing-mode:lr-tb;fill:#000000;fill-opacity:1;fill-rule:nonzero;stroke:none"
           transform="matrix(1,0,0,-1,324.1,435.65)"><tspan
             id="tspan172"
             y="0"
             x="0 13.41 23.507999 32.310001 42.354 47.07 57.113998 67.554001 77.598">Developer</tspan></text>
</g></g><g
       id="g174"><g
         clip-path="url(#clipPath178)"
         id="g176"><text
           id="text182"
           style="font-variant:normal;font-weight:normal;font-size:18px;font-family:YuGothic;-inkscape-font-specification:YuGothic-Regular;writing-mode:lr-tb;fill:#000000;fill-opacity:1;fill-rule:nonzero;stroke:none"
           transform="matrix(1,0,0,-1,490.27,435.65)"><tspan
             id="tspan184"
             y="0"
             x="0 13.284 22.445999 32.490002">User</tspan></text>
</g></g><g
       id="g186"><g
         clip-path="url(#clipPath190)"
         id="g188"><text
           id="text194"
           style="font-variant:normal;font-weight:normal;font-size:18px;font-family:YuGothic;-inkscape-font-specification:YuGothic-Regular;writing-mode:lr-tb;fill:#000000;fill-opacity:1;fill-rule:nonzero;stroke:none"
           transform="matrix(1,0,0,-1,378.77,349.08)"><tspan
             id="tspan196"
             y="0"
             x="0 12.276 18.827999 28.872 38.987999 45.324001">Create</tspan></text>
</g></g><g
       id="g198"><g
         clip-path="url(#clipPath202)"
         id="g200"><text
           id="text206"
           style="font-variant:normal;font-weight:normal;font-size:18px;font-family:YuGothic;-inkscape-font-specification:YuGothic-Regular;writing-mode:lr-tb;fill:#000000;fill-opacity:1;fill-rule:nonzero;stroke:none"
           transform="matrix(1,0,0,-1,378.77,327.48)"><tspan
             id="tspan208"
             y="0"
             x="0 6.21 10.926 21.024">flow</tspan></text>
</g></g><g
       id="g210"><g
         clip-path="url(#clipPath214)"
         id="g212"><text
           id="text218"
           style="font-variant:normal;font-weight:normal;font-size:18px;font-family:YuGothic;-inkscape-font-specification:YuGothic-Regular;writing-mode:lr-tb;fill:#000000;fill-opacity:1;fill-rule:nonzero;stroke:none"
           transform="matrix(1,0,0,-1,524.9,352.56)"><tspan
             id="tspan220"
             y="0"
             x="0 11.682 20.879999 30.167999 40.212002 49.32">Access</tspan></text>
</g></g><g
       id="g222"><g
         clip-path="url(#clipPath226)"
         id="g224"><text
           id="text230"
           style="font-variant:normal;font-weight:normal;font-size:18px;font-family:YuGothic;-inkscape-font-specification:YuGothic-Regular;writing-mode:lr-tb;fill:#000000;fill-opacity:1;fill-rule:nonzero;stroke:none"
           transform="matrix(1,0,0,-1,588.38,352.56)"><tspan
             id="tspan232"
             y="0"
             x="0 6.3600001">to</tspan></text>
</g></g><g
       id="g234"><g
         clip-path="url(#clipPath238)"
         id="g236"><text
           id="text242"
           style="font-variant:normal;font-weight:normal;font-size:18.02400017px;font-family:YuGothic;-inkscape-font-specification:YuGothic-Regular;writing-mode:lr-tb;fill:#000000;fill-opacity:1;fill-rule:nonzero;stroke:none"
           transform="matrix(1,0,0,-1,524.9,330.96)"><tspan
             id="tspan244"
             y="0"
             x="0 10.057392 20.511312 30.965233 35.687519 40.319687 49.566002 59.62339 65.967842 70.690125 80.80159">application</tspan></text>
</g></g></g></svg>